<svg width="36" height="36" viewBox="0 0 36 36" fill="none" xmlns="http://www.w3.org/2000/svg">
<rect x="0.5" y="0.5" width="35" height="35" rx="17.5" stroke="#F3F2F1"/>
<path fill-rule="evenodd" clip-rule="evenodd" d="M12.3335 22.6667C12.3335 21.0099 13.6766 19.6667 15.3335 19.6667H20.6668C22.3237 19.6667 23.6668 21.0099 23.6668 22.6667V24.0001C23.6668 24.1842 23.5176 24.3334 23.3335 24.3334C23.1494 24.3334 23.0002 24.1842 23.0002 24.0001V22.6667C23.0002 21.3781 21.9555 20.3334 20.6668 20.3334H15.3335C14.0448 20.3334 13.0002 21.3781 13.0002 22.6667V24.0001C13.0002 24.1842 12.8509 24.3334 12.6668 24.3334C12.4827 24.3334 12.3335 24.1842 12.3335 24.0001V22.6667Z" fill="#414141"/>
<path fill-rule="evenodd" clip-rule="evenodd" d="M15 14.6667C15 13.0099 16.3431 11.6667 18 11.6667C19.6569 11.6667 21 13.0099 21 14.6667C21 16.3236 19.6569 17.6667 18 17.6667C16.3431 17.6667 15 16.3236 15 14.6667ZM18 12.3334C16.7113 12.3334 15.6667 13.3781 15.6667 14.6667C15.6667 15.9554 16.7113 17.0001 18 17.0001C19.2887 17.0001 20.3333 15.9554 20.3333 14.6667C20.3333 13.3781 19.2887 12.3334 18 12.3334Z" fill="#414141"/>
</svg>
